<svg width="512" height="512" viewBox="0 0 512 512" fill="none" xmlns="http://www.w3.org/2000/svg">
<circle cx="256" cy="256" r="256" fill="#061D2D"/>
<path d="M112.64 315.46L112.807 310.627C114.029 277.405 122.418 246.016 137.973 216.46C152.307 189.46 170.362 167.627 192.14 150.96C213.696 134.516 234.696 126.293 255.14 126.293C270.696 126.293 282.973 131.682 291.973 142.46C299.64 151.793 303.473 163.238 303.473 176.793C303.473 193.016 297.529 209.016 285.64 224.793C278.751 233.905 271.418 240.46 263.64 244.46C259.973 246.46 256.529 247.46 253.307 247.46C250.196 247.46 247.307 246.793 244.64 245.46C241.973 244.127 239.64 242.46 237.64 240.46C233.529 236.127 231.473 232.238 231.473 228.793C231.473 225.349 232.362 222.96 234.14 221.627C252.362 208.516 264.751 195.016 271.307 181.127C273.862 175.793 275.14 170.571 275.14 165.46C275.14 154.682 270.029 149.293 259.807 149.293C243.807 149.293 227.307 158.016 210.307 175.46C194.418 191.571 181.084 211.793 170.307 236.127C159.084 261.127 153.14 284.071 152.473 304.96L152.307 311.293C152.307 336.293 157.584 352.682 168.14 360.46C171.918 363.238 176.418 364.627 181.64 364.627C186.973 364.627 191.973 363.96 196.64 362.627C201.307 361.293 205.973 359.46 210.64 357.127C218.196 353.238 227.862 346.516 239.64 336.96C243.196 334.182 246.14 334.571 248.473 338.127C250.473 341.016 251.473 344.349 251.473 348.127C251.473 354.46 250.584 358.793 248.807 361.127C247.14 363.349 244.196 366.016 239.973 369.127C235.862 372.238 230.807 375.127 224.807 377.793C210.807 384.016 197.084 387.127 183.64 387.127C170.196 387.127 159.362 385.516 151.14 382.293C142.918 378.96 135.973 374.238 130.307 368.127C118.529 355.238 112.64 337.682 112.64 315.46Z" fill="#A6D2F2"/>
<path d="M277.307 370.127C296.529 356.016 315.918 319.682 335.473 261.127C346.807 227.016 354.696 196.238 359.14 168.793C360.362 161.127 360.973 155.238 360.973 151.127C356.418 151.349 352.196 152.571 348.307 154.793L335.807 161.96C332.362 163.849 327.751 162.349 321.973 157.46C316.307 152.571 313.696 148.46 314.14 145.127C314.696 141.682 316.584 138.905 319.807 136.793C323.14 134.571 326.973 132.682 331.307 131.127C340.418 127.905 348.029 126.293 354.14 126.293C360.362 126.293 365.807 126.793 370.473 127.793C375.251 128.682 379.584 130.238 383.473 132.46C392.362 137.571 396.918 144.905 397.14 154.46C397.584 171.016 391.973 199.127 380.307 238.793C361.862 301.571 340.196 345.682 315.307 371.127C308.529 378.127 301.473 382.905 294.14 385.46C292.14 386.238 290.084 386.627 287.973 386.627C285.973 386.627 284.14 386.238 282.473 385.46C280.807 384.793 279.418 383.905 278.307 382.793C275.973 380.682 274.807 378.349 274.807 375.793C274.807 373.238 275.64 371.349 277.307 370.127Z" fill="#A6D2F2"/>
</svg>
