<?xml version="1.0" standalone="no"?>
<!DOCTYPE svg PUBLIC "-//W3C//DTD SVG 20010904//EN"
 "http://www.w3.org/TR/2001/REC-SVG-20010904/DTD/svg10.dtd">
<svg width="512" height="512" viewBox="0 0 512 512" fill="none" xmlns="http://www.w3.org/2000/svg" preserveAspectRatio="xMidYMid meet">
<circle cx="256" cy="256" r="256" fill="#061D2D"/>
<path d="M33 92.4199L33.0488 91.0039C33.4069 81.2708 35.8646 72.0749 40.4219 63.416C44.6211 55.5059 49.9108 49.1094 56.291 44.2266C62.6061 39.4089 68.7585 37 74.748 37C79.3053 37 82.9023 38.5788 85.5391 41.7363C87.7852 44.4707 88.9082 47.8236 88.9082 51.7949C88.9082 56.5475 87.1667 61.235 83.6836 65.8574C81.6654 68.5267 79.5169 70.4473 77.2383 71.6191C76.1641 72.2051 75.1549 72.498 74.2109 72.498C73.2995 72.498 72.4531 72.3027 71.6719 71.9121C70.8906 71.5215 70.207 71.0332 69.6211 70.4473C68.4167 69.1777 67.8145 68.0384 67.8145 67.0293C67.8145 66.0202 68.0749 65.3203 68.5957 64.9297C73.9342 61.0885 77.5638 57.1335 79.4844 53.0645C80.2331 51.502 80.6074 49.972 80.6074 48.4746C80.6074 45.3171 79.11 43.7383 76.1152 43.7383C71.4277 43.7383 66.5938 46.2936 61.6133 51.4043C56.9583 56.1243 53.0521 62.0488 49.8945 69.1777C46.6068 76.502 44.8652 83.224 44.6699 89.3438L44.6211 91.1992C44.6211 98.5234 46.1673 103.325 49.2598 105.604C50.3665 106.417 51.6849 106.824 53.2148 106.824C54.7773 106.824 56.2422 106.629 57.6094 106.238C58.9766 105.848 60.3438 105.311 61.7109 104.627C63.9245 103.488 66.7565 101.518 70.207 98.7188C71.2487 97.9049 72.1113 98.0189 72.7949 99.0605C73.3809 99.9069 73.6738 100.883 73.6738 101.99C73.6738 103.846 73.4134 105.115 72.8926 105.799C72.4043 106.45 71.5417 107.231 70.3047 108.143C69.1003 109.054 67.6191 109.9 65.8613 110.682C61.7598 112.505 57.7396 113.416 53.8008 113.416C49.862 113.416 46.6882 112.944 44.2793 112C41.8704 111.023 39.8359 109.64 38.1758 107.85C34.7253 104.074 33 98.9303 33 92.4199Z" fill="#A6D2F2"/>
<path d="M81.2422 108.436C86.8737 104.301 92.554 93.6569 98.2832 76.502C101.604 66.5085 103.915 57.4915 105.217 49.4512C105.575 47.2051 105.754 45.4798 105.754 44.2754C104.419 44.3405 103.182 44.6986 102.043 45.3496L98.3809 47.4492C97.3717 48.0026 96.0208 47.5632 94.3281 46.1309C92.668 44.6986 91.903 43.4941 92.0332 42.5176C92.196 41.5085 92.7493 40.6947 93.6934 40.0762C94.6699 39.4251 95.793 38.8717 97.0625 38.416C99.7318 37.472 101.962 37 103.752 37C105.575 37 107.17 37.1465 108.537 37.4395C109.937 37.6999 111.206 38.1556 112.346 38.8066C114.95 40.304 116.285 42.4525 116.35 45.252C116.48 50.1022 114.836 58.3379 111.418 69.959C106.014 88.3509 99.6667 101.274 92.375 108.729C90.3893 110.779 88.3223 112.179 86.1738 112.928C85.5879 113.156 84.9857 113.27 84.3672 113.27C83.7812 113.27 83.2441 113.156 82.7559 112.928C82.2676 112.732 81.8607 112.472 81.5352 112.146C80.8516 111.528 80.5098 110.844 80.5098 110.096C80.5098 109.347 80.7539 108.794 81.2422 108.436Z" fill="#A6D2F2"/>
</svg>
